<svg id="visual" viewBox="0 0 960 540" width="960" height="540" xmlns="http://www.w3.org/2000/svg" xmlns:xlink="http://www.w3.org/1999/xlink" version="1.1"><rect width="960" height="540" fill="#1e1e1e"></rect><g><g transform="translate(183 223)"><path d="M65.4 -61.9C83 -47.8 94.3 -23.9 99.2 4.8C104 33.6 102.3 67.1 84.7 83.8C67.1 100.5 33.6 100.4 3.6 96.8C-26.3 93.1 -52.6 86 -72.8 69.3C-92.9 52.6 -106.9 26.3 -102.1 4.8C-97.3 -16.7 -73.6 -33.3 -53.5 -47.4C-33.3 -61.5 -16.7 -73.1 3.6 -76.7C23.9 -80.3 47.8 -76 65.4 -61.9Z" fill="#005b44"></path></g><g transform="translate(830 36)"><path d="M39.9 -40.6C50.5 -29.4 56.8 -14.7 56.5 -0.3C56.1 14.1 49.2 28.1 38.6 35.6C28.1 43 14.1 43.9 2.2 41.7C-9.6 39.5 -19.3 34.2 -25.8 26.7C-32.3 19.3 -35.6 9.6 -35 0.5C-34.5 -8.5 -30.1 -17.1 -23.6 -28.3C-17.1 -39.5 -8.5 -53.3 3.1 -56.4C14.7 -59.4 29.4 -51.8 39.9 -40.6Z" fill="#005b44"></path></g><g transform="translate(575 375)"><path d="M69.7 -65.1C87.9 -51.5 98.5 -25.8 93.5 -5C88.4 15.7 67.8 31.5 49.6 42.8C31.5 54.2 15.7 61.2 -6.3 67.5C-28.3 73.8 -56.6 79.4 -67.3 68C-78.1 56.6 -71.1 28.3 -71.6 -0.4C-72 -29.2 -79.8 -58.4 -69.1 -72C-58.4 -85.5 -29.2 -83.3 -1.7 -81.6C25.8 -79.9 51.5 -78.6 69.7 -65.1Z" fill="#005b44"></path></g></g></svg>