<svg id="visual" viewBox="0 0 960 540" width="960" height="540" xmlns="http://www.w3.org/2000/svg" xmlns:xlink="http://www.w3.org/1999/xlink" version="1.1"><rect x="0" y="0" width="960" height="540" fill="#005b44"></rect><defs><linearGradient id="grad1_0" x1="43.8%" y1="100%" x2="100%" y2="0%"><stop offset="14.444444444444446%" stop-color="#005b44" stop-opacity="1"></stop><stop offset="85.55555555555554%" stop-color="#005b44" stop-opacity="1"></stop></linearGradient></defs><defs><linearGradient id="grad2_0" x1="0%" y1="100%" x2="56.3%" y2="0%"><stop offset="14.444444444444446%" stop-color="#005b44" stop-opacity="1"></stop><stop offset="85.55555555555554%" stop-color="#005b44" stop-opacity="1"></stop></linearGradient></defs><g transform="translate(960, 540)"><path d="M-486 0C-440.7 -52.1 -395.5 -104.2 -364.9 -151.2C-334.4 -198.1 -318.6 -239.9 -294.2 -294.2C-269.7 -348.4 -236.5 -415 -186 -449C-135.5 -483 -67.8 -484.5 0 -486L0 0Z" fill="#121212"></path></g><g transform="translate(0, 0)"><path d="M486 0C475.1 65 464.3 130.1 433.3 179.5C402.3 228.9 351.3 262.6 309.7 309.7C268.1 356.8 236 417.4 186 449C135.9 480.6 68 483.3 0 486L0 0Z" fill="#121212"></path></g></svg>