<svg viewBox="0 0 200 300" xmlns="http://www.w3.org/2000/svg">
  <!-- Left Tower -->
  <polygon points="50,10 60,10 60,100 70,100 70,150 50,150" fill="#555" stroke="#000" stroke-width="2"/>
  <polygon points="50,150 70,150 60,160" fill="#555" stroke="#000" stroke-width="2"/>
  <polygon points="55,160 65,160 60,190" fill="#555" stroke="#000" stroke-width="2"/>
  <polygon points="58,190 62,190 60,210" fill="#555" stroke="#000" stroke-width="2"/>
  
  <!-- Right Tower -->
  <polygon points="130,10 140,10 140,100 150,100 150,150 130,150" fill="#555" stroke="#000" stroke-width="2"/>
  <polygon points="130,150 150,150 140,160" fill="#555" stroke="#000" stroke-width="2"/>
  <polygon points="135,160 145,160 140,190" fill="#555" stroke="#000" stroke-width="2"/>
  <polygon points="138,190 142,190 140,210" fill="#555" stroke="#000" stroke-width="2"/>

  <!-- Main Building -->
  <rect x="70" y="100" width="60" height="120" fill="#777" stroke="#000" stroke-width="2"/>
  <polygon points="70,100 100,60 130,100" fill="#777" stroke="#000" stroke-width="2"/>
  
  <!-- Doors -->
  <rect x="85" y="170" width="10" height="50" fill="#333" stroke="#000" stroke-width="2"/>
  <rect x="105" y="170" width="10" height="50" fill="#333" stroke="#000" stroke-width="2"/>

  <!-- Windows -->
  <rect x="75" y="120" width="10" height="20" fill="#aaa" stroke="#000" stroke-width="2"/>
  <rect x="115" y="120" width="10" height="20" fill="#aaa" stroke="#000" stroke-width="2"/>
  <rect x="95" y="120" width="10" height="20" fill="#aaa" stroke="#000" stroke-width="2"/>
</svg>
