<svg id="visual" viewBox="0 0 960 540" width="960" height="540" xmlns="http://www.w3.org/2000/svg" xmlns:xlink="http://www.w3.org/1999/xlink" version="1.1"><rect x="0" y="0" width="960" height="540" fill="#121212"></rect><path d="M0 144L137 143L274 174L411 159L549 220L686 138L823 172L960 134L960 0L823 0L686 0L549 0L411 0L274 0L137 0L0 0Z" fill="#005b44"></path><path d="M0 172L137 154L274 131L411 112L549 136L686 162L823 149L960 111L960 0L823 0L686 0L549 0L411 0L274 0L137 0L0 0Z" fill="#154b3a"></path><path d="M0 115L137 109L274 93L411 99L549 121L686 125L823 112L960 80L960 0L823 0L686 0L549 0L411 0L274 0L137 0L0 0Z" fill="#1c3c30"></path><path d="M0 52L137 90L274 51L411 97L549 104L686 80L823 75L960 91L960 0L823 0L686 0L549 0L411 0L274 0L137 0L0 0Z" fill="#1e2d27"></path><path d="M0 47L137 66L274 53L411 22L549 29L686 56L823 57L960 63L960 0L823 0L686 0L549 0L411 0L274 0L137 0L0 0Z" fill="#1e1e1e"></path></svg>