<svg id="visual" viewBox="0 0 900 600" width="900" height="600" xmlns="http://www.w3.org/2000/svg" xmlns:xlink="http://www.w3.org/1999/xlink" version="1.1"><g stroke-width="1" stroke-linejoin="bevel"><path d="M453 282L468 287L452 241Z" fill="#121212" stroke="#121212"></path><path d="M468 287L507 236L452 241Z" fill="#153c2f" stroke="#153c2f"></path><path d="M507 236L484 202L452 241Z" fill="#162720" stroke="#162720"></path><path d="M484 202L421 221L452 241Z" fill="#153c2f" stroke="#153c2f"></path><path d="M409 231L416 301L453 282Z" fill="#0f4b39" stroke="#0f4b39"></path><path d="M550 255L520 226L507 236Z" fill="#121212" stroke="#121212"></path><path d="M507 236L520 226L484 202Z" fill="#15201c" stroke="#15201c"></path><path d="M431 325L509 310L468 287Z" fill="#09533f" stroke="#09533f"></path><path d="M468 287L509 310L507 236Z" fill="#16352a" stroke="#16352a"></path><path d="M409 231L453 282L452 241Z" fill="#121212" stroke="#121212"></path><path d="M453 282L431 325L468 287Z" fill="#005b44" stroke="#005b44"></path><path d="M421 221L409 231L452 241Z" fill="#141917" stroke="#141917"></path><path d="M421 221L405 228L409 231Z" fill="#162e25" stroke="#162e25"></path><path d="M409 231L405 228L416 301Z" fill="#0f4b39" stroke="#0f4b39"></path><path d="M416 301L431 325L453 282Z" fill="#162720" stroke="#162720"></path><path d="M509 310L550 255L507 236Z" fill="#162720" stroke="#162720"></path><path d="M489 130L453 158L484 202Z" fill="#121212" stroke="#121212"></path><path d="M484 202L453 158L421 221Z" fill="#09533f" stroke="#09533f"></path><path d="M421 221L453 158L405 228Z" fill="#15201c" stroke="#15201c"></path><path d="M489 130L484 202L544 140Z" fill="#134434" stroke="#134434"></path><path d="M405 228L381 330L416 301Z" fill="#15201c" stroke="#15201c"></path><path d="M416 301L381 330L431 325Z" fill="#141917" stroke="#141917"></path><path d="M495 403L563 337L509 310Z" fill="#162720" stroke="#162720"></path><path d="M509 310L563 337L550 255Z" fill="#15201c" stroke="#15201c"></path><path d="M495 403L509 310L431 325Z" fill="#15201c" stroke="#15201c"></path><path d="M563 337L598 272L550 255Z" fill="#09533f" stroke="#09533f"></path><path d="M550 255L561 160L520 226Z" fill="#134434" stroke="#134434"></path><path d="M561 160L484 202L520 226Z" fill="#141917" stroke="#141917"></path><path d="M598 272L561 160L550 255Z" fill="#153c2f" stroke="#153c2f"></path><path d="M561 160L544 140L484 202Z" fill="#005b44" stroke="#005b44"></path><path d="M402 402L495 403L431 325Z" fill="#121212" stroke="#121212"></path><path d="M405 228L330 329L381 330Z" fill="#005b44" stroke="#005b44"></path><path d="M381 330L402 402L431 325Z" fill="#16352a" stroke="#16352a"></path><path d="M260 293L330 329L405 228Z" fill="#121212" stroke="#121212"></path><path d="M332 345L402 402L381 330Z" fill="#005b44" stroke="#005b44"></path><path d="M330 329L332 345L381 330Z" fill="#005b44" stroke="#005b44"></path><path d="M371 423L404 421L402 402Z" fill="#16352a" stroke="#16352a"></path><path d="M402 402L404 421L495 403Z" fill="#153c2f" stroke="#153c2f"></path><path d="M459 488L544 423L495 403Z" fill="#0f4b39" stroke="#0f4b39"></path><path d="M495 403L544 423L563 337Z" fill="#0f4b39" stroke="#0f4b39"></path><path d="M563 337L629 357L598 272Z" fill="#15201c" stroke="#15201c"></path><path d="M563 94L546 97L544 140Z" fill="#153c2f" stroke="#153c2f"></path><path d="M544 140L546 97L489 130Z" fill="#005b44" stroke="#005b44"></path><path d="M563 94L544 140L561 160Z" fill="#141917" stroke="#141917"></path><path d="M598 407L629 357L563 337Z" fill="#162e25" stroke="#162e25"></path><path d="M663 113L563 94L561 160Z" fill="#0f4b39" stroke="#0f4b39"></path><path d="M489 130L463 74L453 158Z" fill="#162720" stroke="#162720"></path><path d="M453 158L325 135L405 228Z" fill="#162720" stroke="#162720"></path><path d="M546 97L463 74L489 130Z" fill="#005b44" stroke="#005b44"></path><path d="M332 345L371 423L402 402Z" fill="#162e25" stroke="#162e25"></path><path d="M404 421L459 488L495 403Z" fill="#162720" stroke="#162720"></path><path d="M330 329L317 375L332 345Z" fill="#141917" stroke="#141917"></path><path d="M332 345L317 375L371 423Z" fill="#0f4b39" stroke="#0f4b39"></path><path d="M419 71L325 135L453 158Z" fill="#162e25" stroke="#162e25"></path><path d="M330 329L253 314L317 375Z" fill="#153c2f" stroke="#153c2f"></path><path d="M676 217L561 160L598 272Z" fill="#121212" stroke="#121212"></path><path d="M546 97L465 0L463 74Z" fill="#09533f" stroke="#09533f"></path><path d="M544 423L598 407L563 337Z" fill="#162720" stroke="#162720"></path><path d="M463 74L419 71L453 158Z" fill="#141917" stroke="#141917"></path><path d="M692 327L663 312L629 357Z" fill="#15201c" stroke="#15201c"></path><path d="M629 357L663 312L598 272Z" fill="#121212" stroke="#121212"></path><path d="M663 312L672 291L598 272Z" fill="#134434" stroke="#134434"></path><path d="M425 8L404 65L419 71Z" fill="#15201c" stroke="#15201c"></path><path d="M419 71L404 65L325 135Z" fill="#153c2f" stroke="#153c2f"></path><path d="M275 174L260 293L405 228Z" fill="#15201c" stroke="#15201c"></path><path d="M241 196L275 174L214 147Z" fill="#15201c" stroke="#15201c"></path><path d="M325 135L275 174L405 228Z" fill="#005b44" stroke="#005b44"></path><path d="M672 291L676 217L598 272Z" fill="#121212" stroke="#121212"></path><path d="M210 344L253 314L186 292Z" fill="#16352a" stroke="#16352a"></path><path d="M260 293L253 314L330 329Z" fill="#162e25" stroke="#162e25"></path><path d="M672 291L689 226L676 217Z" fill="#121212" stroke="#121212"></path><path d="M663 113L586 56L563 94Z" fill="#005b44" stroke="#005b44"></path><path d="M385 484L459 488L404 421Z" fill="#005b44" stroke="#005b44"></path><path d="M544 423L581 463L598 407Z" fill="#141917" stroke="#141917"></path><path d="M574 472L581 463L544 423Z" fill="#134434" stroke="#134434"></path><path d="M680 429L692 327L629 357Z" fill="#16352a" stroke="#16352a"></path><path d="M663 312L692 327L672 291Z" fill="#134434" stroke="#134434"></path><path d="M752 251L742 208L689 226Z" fill="#121212" stroke="#121212"></path><path d="M680 429L629 357L598 407Z" fill="#162e25" stroke="#162e25"></path><path d="M459 488L574 472L544 423Z" fill="#16352a" stroke="#16352a"></path><path d="M668 448L680 429L598 407Z" fill="#0f4b39" stroke="#0f4b39"></path><path d="M214 147L275 174L325 135Z" fill="#121212" stroke="#121212"></path><path d="M275 174L241 196L260 293Z" fill="#141917" stroke="#141917"></path><path d="M663 113L561 160L676 217Z" fill="#162720" stroke="#162720"></path><path d="M563 94L586 56L546 97Z" fill="#162e25" stroke="#162e25"></path><path d="M403 0L357 48L404 65Z" fill="#162e25" stroke="#162e25"></path><path d="M337 460L385 484L371 423Z" fill="#162e25" stroke="#162e25"></path><path d="M371 423L385 484L404 421Z" fill="#162720" stroke="#162720"></path><path d="M337 460L371 423L293 431Z" fill="#121212" stroke="#121212"></path><path d="M293 431L371 423L317 375Z" fill="#162720" stroke="#162720"></path><path d="M425 8L419 71L463 74Z" fill="#121212" stroke="#121212"></path><path d="M404 65L357 48L325 135Z" fill="#162e25" stroke="#162e25"></path><path d="M241 196L232 209L260 293Z" fill="#0f4b39" stroke="#0f4b39"></path><path d="M210 344L293 431L317 375Z" fill="#005b44" stroke="#005b44"></path><path d="M742 208L663 113L676 217Z" fill="#121212" stroke="#121212"></path><path d="M340 492L408 505L385 484Z" fill="#162e25" stroke="#162e25"></path><path d="M385 484L408 505L459 488Z" fill="#15201c" stroke="#15201c"></path><path d="M459 488L495 529L574 472Z" fill="#162e25" stroke="#162e25"></path><path d="M357 48L330 48L325 135Z" fill="#005b44" stroke="#005b44"></path><path d="M241 196L206 217L232 209Z" fill="#005b44" stroke="#005b44"></path><path d="M465 0L425 8L463 74Z" fill="#153c2f" stroke="#153c2f"></path><path d="M357 48L403 0L330 48Z" fill="#134434" stroke="#134434"></path><path d="M576 0L465 0L546 97Z" fill="#134434" stroke="#134434"></path><path d="M340 492L385 484L337 460Z" fill="#005b44" stroke="#005b44"></path><path d="M404 600L428 520L408 505Z" fill="#162720" stroke="#162720"></path><path d="M408 505L428 520L459 488Z" fill="#134434" stroke="#134434"></path><path d="M293 431L340 492L337 460Z" fill="#153c2f" stroke="#153c2f"></path><path d="M214 147L206 217L241 196Z" fill="#15201c" stroke="#15201c"></path><path d="M232 209L206 217L260 293Z" fill="#162e25" stroke="#162e25"></path><path d="M253 314L210 344L317 375Z" fill="#134434" stroke="#134434"></path><path d="M425 8L403 0L404 65Z" fill="#153c2f" stroke="#153c2f"></path><path d="M465 0L412 0L425 8Z" fill="#16352a" stroke="#16352a"></path><path d="M412 0L403 0L425 8Z" fill="#141917" stroke="#141917"></path><path d="M464 535L495 529L459 488Z" fill="#121212" stroke="#121212"></path><path d="M668 448L581 463L657 479Z" fill="#153c2f" stroke="#153c2f"></path><path d="M668 448L598 407L581 463Z" fill="#16352a" stroke="#16352a"></path><path d="M186 292L253 314L260 293Z" fill="#162e25" stroke="#162e25"></path><path d="M293 431L293 534L340 492Z" fill="#134434" stroke="#134434"></path><path d="M657 479L581 463L638 497Z" fill="#16352a" stroke="#16352a"></path><path d="M428 520L464 535L459 488Z" fill="#15201c" stroke="#15201c"></path><path d="M528 600L464 535L404 600Z" fill="#153c2f" stroke="#153c2f"></path><path d="M207 89L214 147L325 135Z" fill="#005b44" stroke="#005b44"></path><path d="M752 251L689 226L672 291Z" fill="#0f4b39" stroke="#0f4b39"></path><path d="M689 226L742 208L676 217Z" fill="#162e25" stroke="#162e25"></path><path d="M752 251L672 291L692 327Z" fill="#153c2f" stroke="#153c2f"></path><path d="M604 0L576 0L586 56Z" fill="#121212" stroke="#121212"></path><path d="M586 56L576 0L546 97Z" fill="#162720" stroke="#162720"></path><path d="M685 72L586 56L663 113Z" fill="#162e25" stroke="#162e25"></path><path d="M799 277L752 251L800 298Z" fill="#162e25" stroke="#162e25"></path><path d="M206 217L186 292L260 293Z" fill="#141917" stroke="#141917"></path><path d="M172 310L186 292L146 258Z" fill="#121212" stroke="#121212"></path><path d="M693 80L685 72L663 113Z" fill="#153c2f" stroke="#153c2f"></path><path d="M668 448L734 435L680 429Z" fill="#134434" stroke="#134434"></path><path d="M638 497L581 463L574 472Z" fill="#162720" stroke="#162720"></path><path d="M742 208L693 80L663 113Z" fill="#005b44" stroke="#005b44"></path><path d="M555 578L638 497L574 472Z" fill="#121212" stroke="#121212"></path><path d="M798 99L697 76L693 80Z" fill="#0f4b39" stroke="#0f4b39"></path><path d="M693 80L697 76L685 72Z" fill="#162720" stroke="#162720"></path><path d="M620 0L604 0L586 56Z" fill="#162720" stroke="#162720"></path><path d="M620 0L586 56L685 72Z" fill="#15201c" stroke="#15201c"></path><path d="M752 251L763 204L742 208Z" fill="#15201c" stroke="#15201c"></path><path d="M742 208L798 99L693 80Z" fill="#153c2f" stroke="#153c2f"></path><path d="M168 257L186 292L206 217Z" fill="#162720" stroke="#162720"></path><path d="M186 292L172 310L210 344Z" fill="#0f4b39" stroke="#0f4b39"></path><path d="M210 344L217 441L293 431Z" fill="#0f4b39" stroke="#0f4b39"></path><path d="M146 258L168 257L152 191Z" fill="#0f4b39" stroke="#0f4b39"></path><path d="M682 0L620 0L685 72Z" fill="#134434" stroke="#134434"></path><path d="M173 391L217 441L210 344Z" fill="#09533f" stroke="#09533f"></path><path d="M330 48L207 89L325 135Z" fill="#162e25" stroke="#162e25"></path><path d="M152 191L168 257L206 217Z" fill="#162720" stroke="#162720"></path><path d="M274 0L207 89L330 48Z" fill="#005b44" stroke="#005b44"></path><path d="M748 550L734 435L657 479Z" fill="#141917" stroke="#141917"></path><path d="M657 479L734 435L668 448Z" fill="#153c2f" stroke="#153c2f"></path><path d="M680 429L734 435L692 327Z" fill="#0f4b39" stroke="#0f4b39"></path><path d="M752 251L799 277L763 204Z" fill="#0f4b39" stroke="#0f4b39"></path><path d="M152 191L206 217L214 147Z" fill="#162e25" stroke="#162e25"></path><path d="M168 257L146 258L186 292Z" fill="#15201c" stroke="#15201c"></path><path d="M172 310L173 391L210 344Z" fill="#153c2f" stroke="#153c2f"></path><path d="M162 410L173 391L85 427Z" fill="#15201c" stroke="#15201c"></path><path d="M135 133L152 191L214 147Z" fill="#162720" stroke="#162720"></path><path d="M217 441L293 534L293 431Z" fill="#09533f" stroke="#09533f"></path><path d="M340 492L404 600L408 505Z" fill="#16352a" stroke="#16352a"></path><path d="M187 498L293 534L217 441Z" fill="#162e25" stroke="#162e25"></path><path d="M403 0L274 0L330 48Z" fill="#141917" stroke="#141917"></path><path d="M495 529L555 578L574 472Z" fill="#16352a" stroke="#16352a"></path><path d="M638 497L748 550L657 479Z" fill="#141917" stroke="#141917"></path><path d="M528 600L555 578L495 529Z" fill="#141917" stroke="#141917"></path><path d="M528 600L495 529L464 535Z" fill="#09533f" stroke="#09533f"></path><path d="M800 298L752 251L692 327Z" fill="#134434" stroke="#134434"></path><path d="M793 385L800 298L692 327Z" fill="#0f4b39" stroke="#0f4b39"></path><path d="M784 0L682 0L697 76Z" fill="#121212" stroke="#121212"></path><path d="M697 76L682 0L685 72Z" fill="#09533f" stroke="#09533f"></path><path d="M798 99L742 208L763 204Z" fill="#15201c" stroke="#15201c"></path><path d="M119 446L162 410L85 427Z" fill="#162e25" stroke="#162e25"></path><path d="M173 391L162 410L217 441Z" fill="#134434" stroke="#134434"></path><path d="M274 0L249 0L207 89Z" fill="#162720" stroke="#162720"></path><path d="M207 89L135 133L214 147Z" fill="#0f4b39" stroke="#0f4b39"></path><path d="M404 600L464 535L428 520Z" fill="#0f4b39" stroke="#0f4b39"></path><path d="M555 578L645 586L638 497Z" fill="#162720" stroke="#162720"></path><path d="M293 534L404 600L340 492Z" fill="#121212" stroke="#121212"></path><path d="M528 600L540 600L555 578Z" fill="#121212" stroke="#121212"></path><path d="M796 398L793 385L734 435Z" fill="#0f4b39" stroke="#0f4b39"></path><path d="M734 435L793 385L692 327Z" fill="#09533f" stroke="#09533f"></path><path d="M540 600L549 600L555 578Z" fill="#121212" stroke="#121212"></path><path d="M162 410L179 462L217 441Z" fill="#153c2f" stroke="#153c2f"></path><path d="M818 519L796 398L734 435Z" fill="#0f4b39" stroke="#0f4b39"></path><path d="M793 385L826 368L800 298Z" fill="#121212" stroke="#121212"></path><path d="M152 191L98 191L146 258Z" fill="#09533f" stroke="#09533f"></path><path d="M102 127L135 133L125 20Z" fill="#15201c" stroke="#15201c"></path><path d="M825 107L798 99L763 204Z" fill="#162720" stroke="#162720"></path><path d="M825 107L763 204L881 215Z" fill="#121212" stroke="#121212"></path><path d="M163 502L187 498L179 462Z" fill="#09533f" stroke="#09533f"></path><path d="M179 462L187 498L217 441Z" fill="#162e25" stroke="#162e25"></path><path d="M293 534L302 600L404 600Z" fill="#141917" stroke="#141917"></path><path d="M549 600L645 586L555 578Z" fill="#16352a" stroke="#16352a"></path><path d="M796 398L826 368L793 385Z" fill="#005b44" stroke="#005b44"></path><path d="M800 298L853 315L799 277Z" fill="#005b44" stroke="#005b44"></path><path d="M893 385L826 368L900 402Z" fill="#162720" stroke="#162720"></path><path d="M135 133L98 191L152 191Z" fill="#09533f" stroke="#09533f"></path><path d="M85 427L173 391L172 310Z" fill="#141917" stroke="#141917"></path><path d="M119 446L163 502L179 462Z" fill="#16352a" stroke="#16352a"></path><path d="M301 600L302 600L293 534Z" fill="#162e25" stroke="#162e25"></path><path d="M197 600L301 600L293 534Z" fill="#162e25" stroke="#162e25"></path><path d="M826 368L853 315L800 298Z" fill="#141917" stroke="#141917"></path><path d="M881 215L763 204L799 277Z" fill="#15201c" stroke="#15201c"></path><path d="M798 99L784 0L697 76Z" fill="#162720" stroke="#162720"></path><path d="M119 446L179 462L162 410Z" fill="#005b44" stroke="#005b44"></path><path d="M187 498L188 546L293 534Z" fill="#162720" stroke="#162720"></path><path d="M135 133L102 127L98 191Z" fill="#09533f" stroke="#09533f"></path><path d="M125 20L135 133L207 89Z" fill="#0f4b39" stroke="#0f4b39"></path><path d="M249 0L175 0L207 89Z" fill="#134434" stroke="#134434"></path><path d="M549 600L669 600L645 586Z" fill="#121212" stroke="#121212"></path><path d="M696 600L748 550L638 497Z" fill="#141917" stroke="#141917"></path><path d="M85 427L172 310L27 311Z" fill="#162720" stroke="#162720"></path><path d="M197 600L188 546L174 600Z" fill="#134434" stroke="#134434"></path><path d="M163 502L188 546L187 498Z" fill="#153c2f" stroke="#153c2f"></path><path d="M696 600L638 497L645 586Z" fill="#16352a" stroke="#16352a"></path><path d="M900 351L900 326L853 315Z" fill="#005b44" stroke="#005b44"></path><path d="M669 600L696 600L645 586Z" fill="#162720" stroke="#162720"></path><path d="M102 127L76 145L98 191Z" fill="#005b44" stroke="#005b44"></path><path d="M27 311L172 310L146 258Z" fill="#0f4b39" stroke="#0f4b39"></path><path d="M0 98L76 145L102 127Z" fill="#134434" stroke="#134434"></path><path d="M826 0L784 0L838 9Z" fill="#162e25" stroke="#162e25"></path><path d="M853 315L881 215L799 277Z" fill="#15201c" stroke="#15201c"></path><path d="M825 107L864 76L798 99Z" fill="#162720" stroke="#162720"></path><path d="M50 258L146 258L98 191Z" fill="#09533f" stroke="#09533f"></path><path d="M89 512L158 566L163 502Z" fill="#162e25" stroke="#162e25"></path><path d="M35 229L50 258L98 191Z" fill="#162e25" stroke="#162e25"></path><path d="M175 0L125 20L207 89Z" fill="#005b44" stroke="#005b44"></path><path d="M832 537L791 534L841 590Z" fill="#16352a" stroke="#16352a"></path><path d="M748 550L791 534L734 435Z" fill="#153c2f" stroke="#153c2f"></path><path d="M853 315L900 217L881 215Z" fill="#005b44" stroke="#005b44"></path><path d="M900 151L864 76L825 107Z" fill="#134434" stroke="#134434"></path><path d="M900 326L900 217L853 315Z" fill="#162e25" stroke="#162e25"></path><path d="M158 566L188 546L163 502Z" fill="#09533f" stroke="#09533f"></path><path d="M188 546L197 600L293 534Z" fill="#09533f" stroke="#09533f"></path><path d="M0 211L35 229L76 145Z" fill="#09533f" stroke="#09533f"></path><path d="M76 145L35 229L98 191Z" fill="#153c2f" stroke="#153c2f"></path><path d="M50 258L27 311L146 258Z" fill="#005b44" stroke="#005b44"></path><path d="M832 537L818 519L791 534Z" fill="#16352a" stroke="#16352a"></path><path d="M791 534L818 519L734 435Z" fill="#005b44" stroke="#005b44"></path><path d="M89 512L163 502L119 446Z" fill="#121212" stroke="#121212"></path><path d="M900 351L853 315L826 368Z" fill="#153c2f" stroke="#153c2f"></path><path d="M898 181L825 107L881 215Z" fill="#153c2f" stroke="#153c2f"></path><path d="M900 217L898 181L881 215Z" fill="#005b44" stroke="#005b44"></path><path d="M893 385L900 351L826 368Z" fill="#0f4b39" stroke="#0f4b39"></path><path d="M900 402L826 368L900 434Z" fill="#162720" stroke="#162720"></path><path d="M838 9L784 0L798 99Z" fill="#121212" stroke="#121212"></path><path d="M0 284L27 311L50 258Z" fill="#15201c" stroke="#15201c"></path><path d="M0 397L64 445L85 427Z" fill="#09533f" stroke="#09533f"></path><path d="M85 427L64 445L119 446Z" fill="#121212" stroke="#121212"></path><path d="M900 217L900 151L898 181Z" fill="#141917" stroke="#141917"></path><path d="M898 181L900 151L825 107Z" fill="#134434" stroke="#134434"></path><path d="M98 0L102 6L125 20Z" fill="#162720" stroke="#162720"></path><path d="M125 20L64 20L102 127Z" fill="#09533f" stroke="#09533f"></path><path d="M900 27L838 9L864 76Z" fill="#162e25" stroke="#162e25"></path><path d="M864 76L838 9L798 99Z" fill="#005b44" stroke="#005b44"></path><path d="M148 600L174 600L158 566Z" fill="#134434" stroke="#134434"></path><path d="M158 566L174 600L188 546Z" fill="#0f4b39" stroke="#0f4b39"></path><path d="M175 0L98 0L125 20Z" fill="#0f4b39" stroke="#0f4b39"></path><path d="M102 6L64 20L125 20Z" fill="#0f4b39" stroke="#0f4b39"></path><path d="M900 434L826 368L796 398Z" fill="#0f4b39" stroke="#0f4b39"></path><path d="M893 385L900 402L900 351Z" fill="#09533f" stroke="#09533f"></path><path d="M64 445L89 512L119 446Z" fill="#0f4b39" stroke="#0f4b39"></path><path d="M777 600L791 534L748 550Z" fill="#141917" stroke="#141917"></path><path d="M818 519L900 434L796 398Z" fill="#0f4b39" stroke="#0f4b39"></path><path d="M696 600L777 600L748 550Z" fill="#141917" stroke="#141917"></path><path d="M900 502L900 434L818 519Z" fill="#162e25" stroke="#162e25"></path><path d="M67 600L148 600L158 566Z" fill="#15201c" stroke="#15201c"></path><path d="M900 151L900 84L864 76Z" fill="#162720" stroke="#162720"></path><path d="M35 229L0 284L50 258Z" fill="#134434" stroke="#134434"></path><path d="M27 311L0 397L85 427Z" fill="#162720" stroke="#162720"></path><path d="M64 445L4 524L89 512Z" fill="#005b44" stroke="#005b44"></path><path d="M0 211L0 284L35 229Z" fill="#134434" stroke="#134434"></path><path d="M98 0L64 20L102 6Z" fill="#09533f" stroke="#09533f"></path><path d="M0 98L0 211L76 145Z" fill="#121212" stroke="#121212"></path><path d="M0 284L0 324L27 311Z" fill="#0f4b39" stroke="#0f4b39"></path><path d="M0 324L0 397L27 311Z" fill="#005b44" stroke="#005b44"></path><path d="M89 512L67 600L158 566Z" fill="#153c2f" stroke="#153c2f"></path><path d="M900 84L900 27L864 76Z" fill="#121212" stroke="#121212"></path><path d="M838 9L900 0L826 0Z" fill="#121212" stroke="#121212"></path><path d="M886 600L900 502L832 537Z" fill="#134434" stroke="#134434"></path><path d="M832 537L900 502L818 519Z" fill="#141917" stroke="#141917"></path><path d="M0 397L0 422L64 445Z" fill="#162720" stroke="#162720"></path><path d="M64 20L0 98L102 127Z" fill="#141917" stroke="#141917"></path><path d="M777 600L841 590L791 534Z" fill="#134434" stroke="#134434"></path><path d="M900 27L900 0L838 9Z" fill="#121212" stroke="#121212"></path><path d="M0 422L0 456L64 445Z" fill="#005b44" stroke="#005b44"></path><path d="M6 0L0 31L64 20Z" fill="#005b44" stroke="#005b44"></path><path d="M64 20L0 31L0 98Z" fill="#153c2f" stroke="#153c2f"></path><path d="M4 524L67 600L89 512Z" fill="#09533f" stroke="#09533f"></path><path d="M98 0L6 0L64 20Z" fill="#121212" stroke="#121212"></path><path d="M0 456L4 524L64 445Z" fill="#121212" stroke="#121212"></path><path d="M6 0L0 0L0 31Z" fill="#141917" stroke="#141917"></path><path d="M777 600L886 600L841 590Z" fill="#162e25" stroke="#162e25"></path><path d="M841 590L886 600L832 537Z" fill="#121212" stroke="#121212"></path><path d="M0 456L0 528L4 524Z" fill="#0f4b39" stroke="#0f4b39"></path><path d="M4 524L0 528L67 600Z" fill="#15201c" stroke="#15201c"></path><path d="M886 600L900 600L900 502Z" fill="#162720" stroke="#162720"></path><path d="M0 528L0 600L67 600Z" fill="#16352a" stroke="#16352a"></path></g></svg>